{
  "accessors": [
    {
      "bufferView": 2,
      "componentType": 5126,
      "count": 462,
      "max": [
        4.737450122833252,
        2.8835859298706055,
        4.142426490783691
      ],
      "min": [
        -4.635977268218994,
        -3.3881802558898926,
        -0.647689163684845
      ],
      "type": "VEC3"
    },
    {
      "bufferView": 2,
      "byteOffset": 5544,
      "componentType": 5126,
      "count": 462,
      "max": [
        0.9997190833091736,
        0.9991664886474609,
        0.9997561573982239
      ],
      "min": [
        -0.9961698055267334,
        -0.9985004663467407,
        -0.9999127388000488
      ],
      "type": "VEC3"
    },
    {
      "bufferView": 3,
      "componentType": 5126,
      "count": 462,
      "max": [
        0.9991307854652405,
        0.8903541564941406,
        0.9714404344558716,
        1.0
      ],
      "min": [
        -0.9828848242759705,
        -0.9998245239257813,
        -0.9655131101608276,
        1.0
      ],
      "type": "VEC4"
    },
    {
      "bufferView": 1,
      "componentType": 5126,
      "count": 462,
      "max": [
        0.9770107269287109,
        0.99609375
      ],
      "min": [
        0.00390625,
        0.00390625
      ],
      "type": "VEC2"
    },
    {
      "bufferView": 1,
      "byteOffset": 3696,
      "componentType": 5126,
      "count": 462,
      "max": [
        0.9098258018493652,
        0.682997465133667
      ],
      "min": [
        0.13779151439666748,
        0.33438628911972046
      ],
      "type": "VEC2"
    },
    {
      "bufferView": 0,
      "componentType": 5125,
      "count": 2310,
      "type": "SCALAR"
    },
    {
      "bufferView": 2,
      "byteOffset": 11088,
      "componentType": 5126,
      "count": 421,
      "max": [
        3.973522901535034,
        3.315073251724243,
        7.820459842681885
      ],
      "min": [
        -4.06560754776001,
        -3.8000011444091797,
        -1.0269359350204468
      ],
      "type": "VEC3"
    },
    {
      "bufferView": 2,
      "byteOffset": 16140,
      "componentType": 5126,
      "count": 421,
      "max": [
        0.9955426454544067,
        0.998812735080719,
        0.9967303276062012
      ],
      "min": [
        -0.9976459741592407,
        -0.9845356941223145,
        -0.9997808933258057
      ],
      "type": "VEC3"
    },
    {
      "bufferView": 3,
      "byteOffset": 7392,
      "componentType": 5126,
      "count": 421,
      "max": [
        0.9308865666389465,
        0.5676202774047852,
        0.9331066608428955,
        1.0
      ],
      "min": [
        -0.9601403474807739,
        -0.9469646215438843,
        -0.9951903820037842,
        1.0
      ],
      "type": "VEC4"
    },
    {
      "bufferView": 1,
      "byteOffset": 7392,
      "componentType": 5126,
      "count": 421,
      "max": [
        0.8730872273445129,
        0.7669215798377991
      ],
      "min": [
        0.00390625,
        0.00390625
      ],
      "type": "VEC2"
    },
    {
      "bufferView": 1,
      "byteOffset": 10760,
      "componentType": 5126,
      "count": 421,
      "max": [
        0.9936025142669678,
        0.8255726099014282
      ],
      "min": [
        0.008435815572738647,
        0.22112345695495605
      ],
      "type": "VEC2"
    },
    {
      "bufferView": 0,
      "byteOffset": 9240,
      "componentType": 5125,
      "count": 2100,
      "type": "SCALAR"
    },
    {
      "bufferView": 2,
      "byteOffset": 21192,
      "componentType": 5126,
      "count": 386,
      "max": [
        2.5199968814849854,
        2.97733473777771,
        3.340233087539673
      ],
      "min": [
        -2.505803108215332,
        -3.3202006816864014,
        -0.5811302661895752
      ],
      "type": "VEC3"
    },
    {
      "bufferView": 2,
      "byteOffset": 25824,
      "componentType": 5126,
      "count": 386,
      "max": [
        0.9978967905044556,
        0.9943469762802124,
        0.9936138391494751
      ],
      "min": [
        -0.9973355531692505,
        -0.9863500595092773,
        -0.9999882578849792
      ],
      "type": "VEC3"
    },
    {
      "bufferView": 3,
      "byteOffset": 14128,
      "componentType": 5126,
      "count": 386,
      "max": [
        0.9919094443321228,
        0.993998646736145,
        0.9999671578407288,
        1.0
      ],
      "min": [
        -0.980379581451416,
        -0.999306321144104,
        -0.8554500937461853,
        1.0
      ],
      "type": "VEC4"
    },
    {
      "bufferView": 1,
      "byteOffset": 14128,
      "componentType": 5126,
      "count": 386,
      "max": [
        0.99609375,
        0.939179539680481
      ],
      "min": [
        0.00390625,
        0.1777466982603073
      ],
      "type": "VEC2"
    },
    {
      "bufferView": 1,
      "byteOffset": 17216,
      "componentType": 5126,
      "count": 386,
      "max": [
        0.745620846748352,
        0.6979385614395142
      ],
      "min": [
        0.2155473232269287,
        0.3625868558883667
      ],
      "type": "VEC2"
    },
    {
      "bufferView": 0,
      "byteOffset": 17640,
      "componentType": 5125,
      "count": 1908,
      "type": "SCALAR"
    }
  ],
  "asset": {
    "extras": {
      "author": "CR!STALLL (https://sketchfab.com/CR1STALLL)",
      "license": "CC-BY-4.0 (http://creativecommons.org/licenses/by/4.0/)",
      "source": "https://sketchfab.com/3d-models/big-stones-f25b9fe3628f4d7195bdc3a8f2b1aff4",
      "title": "Big Stones"
    },
    "generator": "Sketchfab-16.64.0",
    "version": "2.0"
  },
  "bufferViews": [
    {
      "buffer": 0,
      "byteLength": 25272,
      "name": "floatBufferViews",
      "target": 34963
    },
    {
      "buffer": 0,
      "byteLength": 20304,
      "byteOffset": 25272,
      "byteStride": 8,
      "name": "floatBufferViews",
      "target": 34962
    },
    {
      "buffer": 0,
      "byteLength": 30456,
      "byteOffset": 45576,
      "byteStride": 12,
      "name": "floatBufferViews",
      "target": 34962
    },
    {
      "buffer": 0,
      "byteLength": 20304,
      "byteOffset": 76032,
      "byteStride": 16,
      "name": "floatBufferViews",
      "target": 34962
    }
  ],
  "buffers": [
    {
      "byteLength": 96336,
      "uri": "scene.bin"
    }
  ],
  "extensionsUsed": [
    "KHR_materials_specular"
  ],
  "images": [
    {
      "uri": "textures/stones_big_baseColor.png"
    },
    {
      "uri": "textures/stones_big_metallicRoughness.png"
    },
    {
      "uri": "textures/stones_big_normal.png"
    }
  ],
  "materials": [
    {
      "doubleSided": true,
      "extensions": {
        "KHR_materials_specular": {
          "specularColorFactor": [
            1.0,
            1.0,
            1.0
          ],
          "specularFactor": 0.22400068266874718
        }
      },
      "name": "stones_big",
      "normalTexture": {
        "index": 2
      },
      "occlusionTexture": {
        "index": 1
      },
      "pbrMetallicRoughness": {
        "baseColorTexture": {
          "index": 0
        },
        "metallicFactor": 0.0,
        "metallicRoughnessTexture": {
          "index": 1
        }
      }
    }
  ],
  "meshes": [
    {
      "name": "stone_big_1_stones_big_0",
      "primitives": [
        {
          "attributes": {
            "NORMAL": 1,
            "POSITION": 0,
            "TANGENT": 2,
            "TEXCOORD_0": 3,
            "TEXCOORD_1": 4
          },
          "indices": 5,
          "material": 0,
          "mode": 4
        }
      ]
    },
    {
      "name": "stone_big_2_stones_big_0",
      "primitives": [
        {
          "attributes": {
            "NORMAL": 7,
            "POSITION": 6,
            "TANGENT": 8,
            "TEXCOORD_0": 9,
            "TEXCOORD_1": 10
          },
          "indices": 11,
          "material": 0,
          "mode": 4
        }
      ]
    },
    {
      "name": "stone_big_3_stones_big_0",
      "primitives": [
        {
          "attributes": {
            "NORMAL": 13,
            "POSITION": 12,
            "TANGENT": 14,
            "TEXCOORD_0": 15,
            "TEXCOORD_1": 16
          },
          "indices": 17,
          "material": 0,
          "mode": 4
        }
      ]
    }
  ],
  "nodes": [
    {
      "children": [
        1
      ],
      "matrix": [
        0.8223683834075928,
        0.0,
        0.0,
        0.0,
        0.0,
        1.826024627965756e-16,
        -0.8223683834075928,
        0.0,
        0.0,
        0.8223683834075928,
        1.826024627965756e-16,
        0.0,
        0.0,
        0.0,
        0.0,
        1.0
      ],
      "name": "Sketchfab_model"
    },
    {
      "children": [
        2
      ],
      "matrix": [
        1.0,
        0.0,
        0.0,
        0.0,
        0.0,
        0.0,
        1.0,
        0.0,
        0.0,
        -1.0,
        0.0,
        0.0,
        0.0,
        0.0,
        0.0,
        1.0
      ],
      "name": "stones_big.fbx"
    },
    {
      "children": [
        3,
        5,
        7
      ],
      "name": "RootNode"
    },
    {
      "children": [
        4
      ],
      "matrix": [
        1.0,
        0.0,
        0.0,
        0.0,
        0.0,
        -1.6292067939183141e-07,
        -0.9999999999999868,
        0.0,
        0.0,
        0.9999999999999868,
        -1.6292067939183141e-07,
        0.0,
        0.0,
        0.0,
        14.900683403015137,
        1.0
      ],
      "name": "stone_big_1"
    },
    {
      "mesh": 0,
      "name": "stone_big_1_stones_big_0"
    },
    {
      "children": [
        6
      ],
      "matrix": [
        1.0,
        0.0,
        0.0,
        0.0,
        0.0,
        -1.6292067939183141e-07,
        -0.9999999999999868,
        0.0,
        0.0,
        0.9999999999999868,
        -1.6292067939183141e-07,
        0.0,
        0.0,
        0.0,
        -14.898686408996582,
        1.0
      ],
      "name": "stone_big_2"
    },
    {
      "mesh": 1,
      "name": "stone_big_2_stones_big_0"
    },
    {
      "children": [
        8
      ],
      "matrix": [
        1.0,
        0.0,
        0.0,
        0.0,
        0.0,
        -1.6292067939183141e-07,
        -0.9999999999999868,
        0.0,
        0.0,
        0.9999999999999868,
        -1.6292067939183141e-07,
        0.0,
        0.0,
        0.0,
        0.0,
        1.0
      ],
      "name": "stone_big_3"
    },
    {
      "mesh": 2,
      "name": "stone_big_3_stones_big_0"
    }
  ],
  "samplers": [
    {
      "magFilter": 9729,
      "minFilter": 9987,
      "wrapS": 10497,
      "wrapT": 10497
    }
  ],
  "scene": 0,
  "scenes": [
    {
      "name": "Sketchfab_Scene",
      "nodes": [
        0
      ]
    }
  ],
  "textures": [
    {
      "sampler": 0,
      "source": 0
    },
    {
      "sampler": 0,
      "source": 1
    },
    {
      "sampler": 0,
      "source": 2
    }
  ]
}
